<svg width="68" height="64" viewBox="0 0 68 64" fill="none" xmlns="http://www.w3.org/2000/svg">
<g filter="url(#filter0_diii_1_940)">
<rect x="6" y="4" width="56" height="52" rx="26" fill="url(#paint0_linear_1_940)" shape-rendering="crispEdges"/>
<rect x="5.75" y="3.75" width="56.5" height="52.5" rx="26.25" stroke="#D2CEFF" stroke-width="0.5" shape-rendering="crispEdges"/>
<path d="M28 25H33C33.2652 25 33.5196 25.1054 33.7071 25.2929C33.8946 25.4804 34 25.7348 34 26C34 26.2652 33.8946 26.5196 33.7071 26.7071C33.5196 26.8946 33.2652 27 33 27H28C27.7348 27 27.4804 26.8946 27.2929 26.7071C27.1054 26.5196 27 26.2652 27 26C27 25.7348 27.1054 25.4804 27.2929 25.2929C27.4804 25.1054 27.7348 25 28 25ZM35 33H40C40.2652 33 40.5196 33.1054 40.7071 33.2929C40.8946 33.4804 41 33.7348 41 34C41 34.2652 40.8946 34.5196 40.7071 34.7071C40.5196 34.8946 40.2652 35 40 35H35C34.7348 35 34.4804 34.8946 34.2929 34.7071C34.1054 34.5196 34 34.2652 34 34C34 33.7348 34.1054 33.4804 34.2929 33.2929C34.4804 33.1054 34.7348 33 35 33ZM28 29H40C40.2652 29 40.5196 29.1054 40.7071 29.2929C40.8946 29.4804 41 29.7348 41 30C41 30.2652 40.8946 30.5196 40.7071 30.7071C40.5196 30.8946 40.2652 31 40 31H28C27.7348 31 27.4804 30.8946 27.2929 30.7071C27.1054 30.5196 27 30.2652 27 30C27 29.7348 27.1054 29.4804 27.2929 29.2929C27.4804 29.1054 27.7348 29 28 29Z" fill="white"/>
</g>
<defs>
<filter id="filter0_diii_1_940" x="0.5" y="0.5" width="67" height="63" filterUnits="userSpaceOnUse" color-interpolation-filters="sRGB">
<feFlood flood-opacity="0" result="BackgroundImageFix"/>
<feColorMatrix in="SourceAlpha" type="matrix" values="0 0 0 0 0 0 0 0 0 0 0 0 0 0 0 0 0 0 127 0" result="hardAlpha"/>
<feOffset dy="2"/>
<feGaussianBlur stdDeviation="2.5"/>
<feComposite in2="hardAlpha" operator="out"/>
<feColorMatrix type="matrix" values="0 0 0 0 0.290196 0 0 0 0 0.227451 0 0 0 0 1 0 0 0 0.25 0"/>
<feBlend mode="normal" in2="BackgroundImageFix" result="effect1_dropShadow_1_940"/>
<feBlend mode="normal" in="SourceGraphic" in2="effect1_dropShadow_1_940" result="shape"/>
<feColorMatrix in="SourceAlpha" type="matrix" values="0 0 0 0 0 0 0 0 0 0 0 0 0 0 0 0 0 0 127 0" result="hardAlpha"/>
<feOffset dy="3"/>
<feGaussianBlur stdDeviation="2"/>
<feComposite in2="hardAlpha" operator="arithmetic" k2="-1" k3="1"/>
<feColorMatrix type="matrix" values="0 0 0 0 0.874597 0 0 0 0 0.932332 0 0 0 0 1 0 0 0 0.1 0"/>
<feBlend mode="normal" in2="shape" result="effect2_innerShadow_1_940"/>
<feColorMatrix in="SourceAlpha" type="matrix" values="0 0 0 0 0 0 0 0 0 0 0 0 0 0 0 0 0 0 127 0" result="hardAlpha"/>
<feOffset dy="1"/>
<feGaussianBlur stdDeviation="0.5"/>
<feComposite in2="hardAlpha" operator="arithmetic" k2="-1" k3="1"/>
<feColorMatrix type="matrix" values="0 0 0 0 1 0 0 0 0 1 0 0 0 0 1 0 0 0 0.1 0"/>
<feBlend mode="normal" in2="effect2_innerShadow_1_940" result="effect3_innerShadow_1_940"/>
<feColorMatrix in="SourceAlpha" type="matrix" values="0 0 0 0 0 0 0 0 0 0 0 0 0 0 0 0 0 0 127 0" result="hardAlpha"/>
<feOffset dy="-2"/>
<feGaussianBlur stdDeviation="1"/>
<feComposite in2="hardAlpha" operator="arithmetic" k2="-1" k3="1"/>
<feColorMatrix type="matrix" values="0 0 0 0 0 0 0 0 0 0.259991 0 0 0 0 0.537912 0 0 0 0.15 0"/>
<feBlend mode="normal" in2="effect3_innerShadow_1_940" result="effect4_innerShadow_1_940"/>
</filter>
<linearGradient id="paint0_linear_1_940" x1="35.9639" y1="-9.52951" x2="55.3906" y2="49.264" gradientUnits="userSpaceOnUse">
<stop stop-color="#897FFF"/>
<stop offset="1" stop-color="#4A3AFF"/>
</linearGradient>
</defs>
</svg>
