<svg width="41" height="41" viewBox="0 0 41 41" fill="none" xmlns="http://www.w3.org/2000/svg">
<path opacity="0.5" fill-rule="evenodd" clip-rule="evenodd" d="M5.91766 35.0822C8.42207 37.5832 12.4469 37.5832 20.5 37.5832C28.5531 37.5832 32.5796 37.5832 35.0806 35.0805C37.5833 32.5812 37.5833 28.5529 37.5833 20.4998C37.5833 12.4468 37.5833 8.42021 35.0806 5.9175C32.5813 3.4165 28.5531 3.4165 20.5 3.4165C12.4469 3.4165 8.42036 3.4165 5.91766 5.9175C3.41666 8.42192 3.41666 12.4468 3.41666 20.4998C3.41666 28.5529 3.41666 32.5812 5.91766 35.0822Z" fill="#243046"/>
<path d="M22.931 29.6602L28.9306 14.0016C29.0444 13.7314 29.0751 13.4334 29.0187 13.1457C28.9622 12.858 28.8213 12.5936 28.6139 12.3864C28.4065 12.1792 28.1421 12.0385 27.8543 11.9824C27.5666 11.9262 27.2686 11.9571 26.9985 12.0712L11.3399 18.0691C9.92201 18.6141 9.87588 20.6026 11.2716 21.0262L17.2115 22.8319C17.6727 22.972 18.0281 23.3274 18.1681 23.7886L19.9738 29.7285C20.3975 31.1242 22.386 31.0781 22.9293 29.6602" fill="#243046"/>
</svg>
