<svg width="41" height="41" viewBox="0 0 41 41" fill="none" xmlns="http://www.w3.org/2000/svg">
<path opacity="0.5" d="M18.0007 37.0263C18.783 37.3925 19.6362 37.5824 20.5 37.5824C21.3638 37.5824 22.217 37.3925 22.9993 37.0263C29.8053 33.8453 34.1666 24.9518 34.1666 17.3292C34.1666 9.64338 28.0474 3.4165 20.5 3.4165C12.9526 3.4165 6.83331 9.64509 6.83331 17.3275C6.83331 24.95 11.1947 33.847 18.0007 37.0263Z" fill="#243046"/>
<path d="M18.3202 22.7722C16.3214 21.1766 13.6667 18.6004 13.6667 16.1609C13.6667 12.0165 17.425 10.4688 20.5 13.6702C23.575 10.4688 27.3334 12.0165 27.3334 16.1609C27.3334 18.6004 24.6803 21.1766 22.6799 22.7722C21.7232 23.5358 21.2449 23.9168 20.5 23.9168C19.7552 23.9168 19.2769 23.5358 18.3202 22.7722Z" fill="#243046"/>
</svg>
