<svg width="41" height="41" viewBox="0 0 41 41" fill="none" xmlns="http://www.w3.org/2000/svg">
<path opacity="0.5" d="M37.5833 27.3335C37.5833 22.5023 37.5833 20.085 36.0817 18.5851C35.2446 17.748 34.124 17.3773 32.46 17.2133C31.0353 17.1706 27.6767 17.0835 25.6267 17.0835H13.6667C10.1714 17.0835 7.94204 17.0835 6.40625 17.6507L37.0469 34.5034C37.5833 32.971 37.5833 30.7604 37.5833 27.3335Z" fill="#243046"/>
<path d="M18.3782 27.1589L4.28788 19.4099C3.41663 20.9508 3.41663 23.3015 3.41663 27.3332C3.41663 31.8876 3.41663 34.2946 4.67396 35.8133L18.3782 27.1589ZM13.6666 37.5832H27.3333C31.5734 37.5832 33.9531 37.5832 35.4872 36.5684L20.9424 28.57L7.20229 37.2483C8.69025 37.5832 10.7334 37.5832 13.6666 37.5832ZM29.0416 3.4165C27.7939 3.41608 26.5889 3.87083 25.6526 4.69547C24.7163 5.52012 24.1129 6.65801 23.9557 7.89576C23.7985 9.13351 24.0982 10.3861 24.7987 11.4186C25.4991 12.4512 26.5522 13.1927 27.7604 13.5042V22.2082C27.7604 22.548 27.8954 22.8739 28.1356 23.1142C28.3759 23.3544 28.7018 23.4894 29.0416 23.4894C29.3814 23.4894 29.7073 23.3544 29.9476 23.1142C30.1879 22.8739 30.3229 22.548 30.3229 22.2082V13.5042C31.5284 13.19 32.5783 12.4476 33.2764 11.4158C33.9744 10.3839 34.2728 9.13312 34.1159 7.89724C33.9589 6.66136 33.3573 5.52492 32.4234 4.7003C31.4896 3.87569 30.2874 3.41933 29.0416 3.4165Z" fill="#243046"/>
</svg>
